# xmcd CD Database Entry
#
# Track frame offsets:
# 150
# 13808
# 27430
# 40462
# 52830
# 64868
# 75471
# 89592
# 99085
# 111328
# 122793
# 134095
# 144697
# 157218
# 169681
# 180851
# 192840
# 205735
# 218399
# 234013
#
# Disc length: 3289 seconds
#
# Revision: 2
# Processed by: cddbd v1.4PL0 Copyright (c) Steve Scherf et al.
# Submitted via: tcd 2.0b
#
DISCID=0e0cd714
DTITLE=Man&Woman Love Songs - various artists
DYEAR=1900
DGENRE=
TTITLE0=OH, PRETTY WOMAN
TTITLE1=STAND BY ME
TTITLE2=WHEN A MAN LOVES A WOMAN
TTITLE3=MY GIRL
TTITLE4=CALENDER GIRL
TTITLE5=DIANA
TTITLE6=DAYDREAM BELIEVER
TTITLE7=YESTERDAY
TTITLE8=MICHELLE
TTITLE9=LA PLUS BELLE POUR ALLER DANSER
TTITLE10=HEY PAULA
TTITLE11=LIPSTICH ON YOUR COLLAR
TTITLE12=LOVE ME TENDER
TTITLE13=SUNNY
TTITLE14=SAVE THE LAST DANCE FOR ME
TTITLE15=SMOKE GETS IN YOUR EYES
TTITLE16=I LEFT MY HEART IN SAN FRANCISCO
TTITLE17=A LOVER'S CONCERTO
TTITLE18=MONA LISA
TTITLE19=IF YOU LOVE ME
EXTD=
EXTT0=
EXTT1=
EXTT2=
EXTT3=
EXTT4=
EXTT5=
EXTT6=
EXTT7=
EXTT8=
EXTT9=
EXTT10=
EXTT11=
EXTT12=
EXTT13=
EXTT14=
EXTT15=
EXTT16=
EXTT17=
EXTT18=
EXTT19=
PLAYORDER=
